<?xml version="1.0" encoding="UTF-8" standalone="no"?>
<!-- Created with Inkscape (http://www.inkscape.org/) -->

<svg
   xmlns:dc="http://purl.org/dc/elements/1.1/"
   xmlns:cc="http://creativecommons.org/ns#"
   xmlns:rdf="http://www.w3.org/1999/02/22-rdf-syntax-ns#"
   xmlns:svg="http://www.w3.org/2000/svg"
   xmlns="http://www.w3.org/2000/svg"
   xmlns:sodipodi="http://sodipodi.sourceforge.net/DTD/sodipodi-0.dtd"
   xmlns:inkscape="http://www.inkscape.org/namespaces/inkscape"
   width="2000"
   height="500"
   viewBox="0 0 529.16666 132.29167"
   version="1.1"
   id="svg8"
   inkscape:version="0.92.5 (2060ec1f9f, 2020-04-08)"
   sodipodi:docname="banner.svg">
  <defs
     id="defs2">
    <linearGradient
       id="linearGradient-1"
       y2="148.33669"
       x2="151.13554"
       y1="22.898218"
       x1="24.714943"
       gradientTransform="scale(0.99888681,1.0011144)"
       gradientUnits="userSpaceOnUse">
      <stop
         id="stop4181"
         offset="0%"
         stop-color="#387EB8" />
      <stop
         id="stop4183"
         offset="100%"
         stop-color="#366994" />
    </linearGradient>
    <linearGradient
       id="linearGradient-2"
       y2="231.90547"
       x2="238.25963"
       y1="103.26588"
       x1="102.48342"
       gradientTransform="scale(0.99888678,1.0011145)"
       gradientUnits="userSpaceOnUse">
      <stop
         id="stop4186"
         offset="0%"
         stop-color="#FFE052" />
      <stop
         id="stop4188"
         offset="100%"
         stop-color="#FFC331" />
    </linearGradient>
  </defs>
  <sodipodi:namedview
     id="base"
     pagecolor="#ffffff"
     bordercolor="#5a5a5a"
     borderopacity="1"
     inkscape:pageopacity="0"
     inkscape:pageshadow="2"
     inkscape:zoom="0.35"
     inkscape:cx="660"
     inkscape:cy="331.42857"
     inkscape:document-units="mm"
     inkscape:current-layer="g4179"
     showgrid="false"
     units="px"
     showborder="true"
     inkscape:showpageshadow="false"
     borderlayer="false"
     inkscape:pagecheckerboard="true"
     inkscape:window-width="1358"
     inkscape:window-height="730"
     inkscape:window-x="4"
     inkscape:window-y="4"
     inkscape:window-maximized="0" />
  <metadata
     id="metadata5">
    <rdf:RDF>
      <cc:Work
         rdf:about="">
        <dc:format>image/svg+xml</dc:format>
        <dc:type
           rdf:resource="http://purl.org/dc/dcmitype/StillImage" />
        <dc:title></dc:title>
      </cc:Work>
    </rdf:RDF>
  </metadata>
  <g
     inkscape:label="Layer 1"
     inkscape:groupmode="layer"
     id="layer1"
     transform="translate(0,-164.70831)">
    <g
       id="g4179"
       transform="matrix(0.46875,0,0,0.46875,0,58.874983)">
      <g
         id="g3763"
         transform="matrix(2.3206944,0,0,2.3206944,-25.011926,-215.5925)">
	<rect
   id="rect3731"
   height="3.2"
   width="0.60000002"
   style="fill:#2b3b4e"
   y="262.79999"
   x="76.800003" />

	<rect
   id="rect3733"
   height="3.2"
   width="0.60000002"
   style="fill:#2b3b4e"
   y="262.79999"
   x="74" />

	<rect
   id="rect3735"
   height="3.2"
   width="0.60000002"
   style="fill:#2b3b4e"
   y="262.79999"
   x="71.300003" />

	<rect
   id="rect3737"
   height="3.2"
   width="0.60000002"
   style="fill:#2b3b4e"
   y="262.79999"
   x="68.599998" />

	<rect
   id="rect3739"
   height="3.2"
   width="0.60000002"
   style="fill:#2b3b4e"
   y="262.79999"
   x="65.900002" />

	<rect
   id="rect3741"
   height="3.2"
   width="0.60000002"
   style="fill:#2b3b4e"
   y="262.79999"
   x="63.200001" />

	<rect
   id="rect3743"
   height="3.2"
   width="0.60000002"
   style="fill:#2b3b4e"
   y="262.79999"
   x="60.5" />

	<rect
   id="rect3745"
   height="3.2"
   width="0.60000002"
   style="fill:#2b3b4e"
   y="262.79999"
   x="57.799999" />

	<rect
   id="rect3747"
   height="3.2"
   width="0.60000002"
   style="fill:#2b3b4e"
   y="262.79999"
   x="55.099998" />

	<rect
   id="rect3749"
   height="3.2"
   width="0.60000002"
   style="fill:#2b3b4e"
   y="262.79999"
   x="52.400002" />

	<rect
   id="rect3751"
   height="3.2"
   width="0.60000002"
   style="fill:#2b3b4e"
   y="262.79999"
   x="49.700001" />

	<rect
   id="rect3753"
   height="3.2"
   width="0.60000002"
   style="fill:#2b3b4e"
   y="262.79999"
   x="46.900002" />

	<rect
   id="rect3755"
   height="3.2"
   width="0.60000002"
   style="fill:#2b3b4e"
   y="262.79999"
   x="44.200001" />

	<rect
   id="rect3757"
   height="3.2"
   width="0.60000002"
   style="fill:#2b3b4e"
   y="262.79999"
   x="41.5" />

	<rect
   id="rect3759"
   height="3.2"
   width="0.60000002"
   style="fill:#2b3b4e"
   y="262.79999"
   x="38.799999" />

	<rect
   id="rect3761"
   height="3.2"
   width="0.60000002"
   style="fill:#2b3b4e"
   y="262.79999"
   x="36.099998" />

</g>
      <path
         id="path3765"
         d="m 734.08717,421.43808 h 320.95213 c -2.0887,-19.49381 -14.6205,-37.82727 -35.5066,-54.07217 H 734.08717 Z"
         style="fill:#acb3ba;stroke-width:2.32069445"
         inkscape:connector-curvature="0" />
      <path
         id="path3767"
         d="M 754.97347,367.36591 H 1005.6085 C 1003.984,350.88898 994.237,335.3403 977.99209,321.64824 H 754.97347 Z"
         style="fill:#ced5e0;stroke-width:2.32069445"
         inkscape:connector-curvature="0" />
      <path
         id="path3769"
         d="M 772.14655,321.64824 H 961.97932 C 960.81904,307.9561 953.39276,295.1923 941.09309,284.053 H 772.14655 Z"
         style="fill:#e6e9ee;stroke-width:2.32069445"
         inkscape:connector-curvature="0" />
      <rect
         id="rect3771"
         height="63.122883"
         width="125.54957"
         style="fill:#ff7058;stroke-width:2.32069445"
         y="388.25226"
         x="191.50888" />
      <rect
         id="rect3773"
         height="63.122883"
         width="125.54957"
         style="fill:#ffd05b;stroke-width:2.32069445"
         y="388.25226"
         x="568.6217" />
      <g
         id="g3789"
         transform="matrix(2.3206944,0,0,2.3206944,-25.011926,-215.5925)">
	<rect
   id="rect3775"
   height="19.6"
   width="2.8"
   style="fill:#f1543f"
   y="263.89999"
   x="97.800003" />

	<rect
   id="rect3777"
   height="19.6"
   width="2.8"
   style="fill:#f1543f"
   y="263.89999"
   x="104.8" />

	<rect
   id="rect3779"
   height="19.6"
   width="2.8"
   style="fill:#f1543f"
   y="263.89999"
   x="111.9" />

	<rect
   id="rect3781"
   height="19.6"
   width="2.8"
   style="fill:#f1543f"
   y="263.89999"
   x="119" />

	<rect
   id="rect3783"
   height="19.6"
   width="2.8"
   style="fill:#f1543f"
   y="263.89999"
   x="126.1" />

	<rect
   id="rect3785"
   height="19.6"
   width="2.8"
   style="fill:#f1543f"
   y="263.89999"
   x="133.2" />

	<rect
   id="rect3787"
   height="19.6"
   width="2.8"
   style="fill:#f1543f"
   y="263.89999"
   x="140.2" />

</g>
      <rect
         id="rect3791"
         height="63.122883"
         width="125.54957"
         style="fill:#ff7058;stroke-width:2.32069445"
         y="325.12924"
         x="380.1813" />
      <g
         id="g3807"
         transform="matrix(2.3206944,0,0,2.3206944,-25.011926,-215.5925)">
	<rect
   id="rect3793"
   height="19.6"
   width="2.8"
   style="fill:#f1543f"
   y="236.7"
   x="179" />

	<rect
   id="rect3795"
   height="19.6"
   width="2.8"
   style="fill:#f1543f"
   y="236.7"
   x="186.10001" />

	<rect
   id="rect3797"
   height="19.6"
   width="2.8"
   style="fill:#f1543f"
   y="236.7"
   x="193.10001" />

	<rect
   id="rect3799"
   height="19.6"
   width="2.8"
   style="fill:#f1543f"
   y="236.7"
   x="200.2" />

	<rect
   id="rect3801"
   height="19.6"
   width="2.8"
   style="fill:#f1543f"
   y="236.7"
   x="207.3" />

	<rect
   id="rect3803"
   height="19.6"
   width="2.8"
   style="fill:#f1543f"
   y="236.7"
   x="214.39999" />

	<rect
   id="rect3805"
   height="19.6"
   width="2.8"
   style="fill:#f1543f"
   y="236.7"
   x="221.5" />

</g>
      <rect
         id="rect3809"
         height="63.122883"
         width="125.54957"
         style="fill:#84dbff;stroke-width:2.32069445"
         y="388.25226"
         x="317.29047" />
      <g
         id="g3825"
         transform="matrix(2.3206944,0,0,2.3206944,-25.011926,-215.5925)">
	<rect
   id="rect3811"
   height="19.6"
   width="2.8"
   style="fill:#54c0eb"
   y="263.89999"
   x="151.89999" />

	<rect
   id="rect3813"
   height="19.6"
   width="2.8"
   style="fill:#54c0eb"
   y="263.89999"
   x="159" />

	<rect
   id="rect3815"
   height="19.6"
   width="2.8"
   style="fill:#54c0eb"
   y="263.89999"
   x="166.10001" />

	<rect
   id="rect3817"
   height="19.6"
   width="2.8"
   style="fill:#54c0eb"
   y="263.89999"
   x="173.10001" />

	<rect
   id="rect3819"
   height="19.6"
   width="2.8"
   style="fill:#54c0eb"
   y="263.89999"
   x="180.2" />

	<rect
   id="rect3821"
   height="19.6"
   width="2.8"
   style="fill:#54c0eb"
   y="263.89999"
   x="187.3" />

	<rect
   id="rect3823"
   height="19.6"
   width="2.8"
   style="fill:#54c0eb"
   y="263.89999"
   x="194.39999" />

</g>
      <rect
         id="rect3827"
         height="63.122883"
         width="125.54957"
         style="fill:#84dbff;stroke-width:2.32069445"
         y="325.12924"
         x="505.73087" />
      <g
         id="g3843"
         transform="matrix(2.3206944,0,0,2.3206944,-25.011926,-215.5925)">
	<rect
   id="rect3829"
   height="19.6"
   width="2.8"
   style="fill:#54c0eb"
   y="236.7"
   x="233.10001" />

	<rect
   id="rect3831"
   height="19.6"
   width="2.8"
   style="fill:#54c0eb"
   y="236.7"
   x="240.2" />

	<rect
   id="rect3833"
   height="19.6"
   width="2.8"
   style="fill:#54c0eb"
   y="236.7"
   x="247.3" />

	<rect
   id="rect3835"
   height="19.6"
   width="2.8"
   style="fill:#54c0eb"
   y="236.7"
   x="254.39999" />

	<rect
   id="rect3837"
   height="19.6"
   width="2.8"
   style="fill:#54c0eb"
   y="236.7"
   x="261.39999" />

	<rect
   id="rect3839"
   height="19.6"
   width="2.8"
   style="fill:#54c0eb"
   y="236.7"
   x="268.5" />

	<rect
   id="rect3841"
   height="19.6"
   width="2.8"
   style="fill:#54c0eb"
   y="236.7"
   x="275.60001" />

</g>
      <rect
         id="rect3845"
         height="63.122883"
         width="125.54957"
         style="fill:#e6e9ee;stroke-width:2.32069445"
         y="388.25226"
         x="442.84012" />
      <g
         id="g3861"
         transform="matrix(2.3206944,0,0,2.3206944,-25.011926,-215.5925)">
	<rect
   id="rect3847"
   height="19.6"
   width="2.8"
   style="fill:#ced5e0"
   y="263.89999"
   x="206" />

	<rect
   id="rect3849"
   height="19.6"
   width="2.8"
   style="fill:#ced5e0"
   y="263.89999"
   x="213.10001" />

	<rect
   id="rect3851"
   height="19.6"
   width="2.8"
   style="fill:#ced5e0"
   y="263.89999"
   x="220.2" />

	<rect
   id="rect3853"
   height="19.6"
   width="2.8"
   style="fill:#ced5e0"
   y="263.89999"
   x="227.3" />

	<rect
   id="rect3855"
   height="19.6"
   width="2.8"
   style="fill:#ced5e0"
   y="263.89999"
   x="234.39999" />

	<rect
   id="rect3857"
   height="19.6"
   width="2.8"
   style="fill:#ced5e0"
   y="263.89999"
   x="241.5" />

	<rect
   id="rect3859"
   height="19.6"
   width="2.8"
   style="fill:#ced5e0"
   y="263.89999"
   x="248.5" />

</g>
      <rect
         id="rect3863"
         height="63.122883"
         width="125.54957"
         style="fill:#e6e9ee;stroke-width:2.32069445"
         y="261.77438"
         x="317.29047" />
      <g
         id="g3879"
         transform="matrix(2.3206944,0,0,2.3206944,-25.011926,-215.5925)">
	<rect
   id="rect3865"
   height="19.6"
   width="2.8"
   style="fill:#ced5e0"
   y="209.5"
   x="151.89999" />

	<rect
   id="rect3867"
   height="19.6"
   width="2.8"
   style="fill:#ced5e0"
   y="209.5"
   x="159" />

	<rect
   id="rect3869"
   height="19.6"
   width="2.8"
   style="fill:#ced5e0"
   y="209.5"
   x="166.10001" />

	<rect
   id="rect3871"
   height="19.6"
   width="2.8"
   style="fill:#ced5e0"
   y="209.5"
   x="173.10001" />

	<rect
   id="rect3873"
   height="19.6"
   width="2.8"
   style="fill:#ced5e0"
   y="209.5"
   x="180.2" />

	<rect
   id="rect3875"
   height="19.6"
   width="2.8"
   style="fill:#ced5e0"
   y="209.5"
   x="187.3" />

	<rect
   id="rect3877"
   height="19.6"
   width="2.8"
   style="fill:#ced5e0"
   y="209.5"
   x="194.39999" />

</g>
      <g
         id="g3895"
         transform="matrix(2.3206944,0,0,2.3206944,-25.011926,-215.5925)">
	<rect
   id="rect3881"
   height="19.6"
   width="2.8"
   style="fill:#f9b54c"
   y="263.89999"
   x="260.20001" />

	<rect
   id="rect3883"
   height="19.6"
   width="2.8"
   style="fill:#f9b54c"
   y="263.89999"
   x="267.29999" />

	<rect
   id="rect3885"
   height="19.6"
   width="2.8"
   style="fill:#f9b54c"
   y="263.89999"
   x="274.39999" />

	<rect
   id="rect3887"
   height="19.6"
   width="2.8"
   style="fill:#f9b54c"
   y="263.89999"
   x="281.39999" />

	<rect
   id="rect3889"
   height="19.6"
   width="2.8"
   style="fill:#f9b54c"
   y="263.89999"
   x="288.5" />

	<rect
   id="rect3891"
   height="19.6"
   width="2.8"
   style="fill:#f9b54c"
   y="263.89999"
   x="295.60001" />

	<rect
   id="rect3893"
   height="19.6"
   width="2.8"
   style="fill:#f9b54c"
   y="263.89999"
   x="302.70001" />

</g>
      <rect
         id="rect3897"
         height="63.122883"
         width="125.54957"
         style="fill:#ffd05b;stroke-width:2.32069445"
         y="325.12924"
         x="254.39969" />
      <g
         id="g3913"
         transform="matrix(2.3206944,0,0,2.3206944,-25.011926,-215.5925)">
	<rect
   id="rect3899"
   height="19.6"
   width="2.8"
   style="fill:#f9b54c"
   y="236.7"
   x="124.8" />

	<rect
   id="rect3901"
   height="19.6"
   width="2.8"
   style="fill:#f9b54c"
   y="236.7"
   x="131.89999" />

	<rect
   id="rect3903"
   height="19.6"
   width="2.8"
   style="fill:#f9b54c"
   y="236.7"
   x="139" />

	<rect
   id="rect3905"
   height="19.6"
   width="2.8"
   style="fill:#f9b54c"
   y="236.7"
   x="146.10001" />

	<rect
   id="rect3907"
   height="19.6"
   width="2.8"
   style="fill:#f9b54c"
   y="236.7"
   x="153.2" />

	<rect
   id="rect3909"
   height="19.6"
   width="2.8"
   style="fill:#f9b54c"
   y="236.7"
   x="160.2" />

	<rect
   id="rect3911"
   height="19.6"
   width="2.8"
   style="fill:#f9b54c"
   y="236.7"
   x="167.3" />

</g>
      <rect
         id="rect3915"
         height="63.122883"
         width="125.54957"
         style="fill:#ffd05b;stroke-width:2.32069445"
         y="261.77438"
         x="442.84012" />
      <g
         id="g3931"
         transform="matrix(2.3206944,0,0,2.3206944,-25.011926,-215.5925)">
	<rect
   id="rect3917"
   height="19.6"
   width="2.8"
   style="fill:#f9b54c"
   y="209.5"
   x="206" />

	<rect
   id="rect3919"
   height="19.6"
   width="2.8"
   style="fill:#f9b54c"
   y="209.5"
   x="213.10001" />

	<rect
   id="rect3921"
   height="19.6"
   width="2.8"
   style="fill:#f9b54c"
   y="209.5"
   x="220.2" />

	<rect
   id="rect3923"
   height="19.6"
   width="2.8"
   style="fill:#f9b54c"
   y="209.5"
   x="227.3" />

	<rect
   id="rect3925"
   height="19.6"
   width="2.8"
   style="fill:#f9b54c"
   y="209.5"
   x="234.39999" />

	<rect
   id="rect3927"
   height="19.6"
   width="2.8"
   style="fill:#f9b54c"
   y="209.5"
   x="241.5" />

	<rect
   id="rect3929"
   height="19.6"
   width="2.8"
   style="fill:#f9b54c"
   y="209.5"
   x="248.5" />

</g>
      <path
         id="path3933"
         d="m 710.6482,416.79669 -21.35044,36.20287 c 0,0 -317.70302,-4.6414 -440.69982,-4.6414 -86.32984,0 -90.97122,-42.00461 -91.2033,-47.80629 H 56.444444 c 6.730014,20.19006 40.148002,62.19459 40.148002,62.19459 -35.970751,27.84834 -24.135209,45.25353 -24.135209,45.25353 H 1004.4481 c 58.7136,-2.08863 67.0681,-69.62085 67.9963,-91.2033 z"
         style="fill:#324a5e;stroke-width:2.32069445"
         inkscape:connector-curvature="0" />
      <g
         id="g3977"
         transform="matrix(2.3206944,0,0,2.3206944,-25.011926,-215.5925)">
	<rect
   id="rect3935"
   height="6.0999999"
   width="7.4000001"
   style="fill:#54c0eb"
   y="256.5"
   x="335.20001" />

	<rect
   id="rect3937"
   height="6.0999999"
   width="7.4000001"
   style="fill:#54c0eb"
   y="256.5"
   x="351.70001" />

	<rect
   id="rect3939"
   height="6.0999999"
   width="7.4000001"
   style="fill:#54c0eb"
   y="256.5"
   x="368.20001" />

	<rect
   id="rect3941"
   height="6.0999999"
   width="7.4000001"
   style="fill:#54c0eb"
   y="256.5"
   x="384.79999" />

	<rect
   id="rect3943"
   height="6.0999999"
   width="7.4000001"
   style="fill:#54c0eb"
   y="256.5"
   x="401.29999" />

	<rect
   id="rect3945"
   height="6.0999999"
   width="7.4000001"
   style="fill:#54c0eb"
   y="256.5"
   x="417.89999" />

	<rect
   id="rect3947"
   height="6.0999999"
   width="7.4000001"
   style="fill:#54c0eb"
   y="256.5"
   x="434.39999" />

	<rect
   id="rect3949"
   height="5.0999999"
   width="6.1999998"
   style="fill:#54c0eb"
   y="235.3"
   x="340" />

	<rect
   id="rect3951"
   height="5.0999999"
   width="6.1999998"
   style="fill:#54c0eb"
   y="235.3"
   x="354" />

	<rect
   id="rect3953"
   height="5.0999999"
   width="6.1999998"
   style="fill:#54c0eb"
   y="235.3"
   x="368" />

	<rect
   id="rect3955"
   height="5.0999999"
   width="6.1999998"
   style="fill:#54c0eb"
   y="235.3"
   x="381.89999" />

	<rect
   id="rect3957"
   height="5.0999999"
   width="6.1999998"
   style="fill:#54c0eb"
   y="235.3"
   x="395.89999" />

	<rect
   id="rect3959"
   height="5.0999999"
   width="6.1999998"
   style="fill:#54c0eb"
   y="235.3"
   x="409.89999" />

	<rect
   id="rect3961"
   height="5.0999999"
   width="6.1999998"
   style="fill:#54c0eb"
   y="235.3"
   x="423.89999" />

	<rect
   id="rect3963"
   height="3.8"
   width="4.5999999"
   style="fill:#54c0eb"
   y="218.3"
   x="347.10001" />

	<rect
   id="rect3965"
   height="3.8"
   width="4.5999999"
   style="fill:#54c0eb"
   y="218.3"
   x="357.29999" />

	<rect
   id="rect3967"
   height="3.8"
   width="4.5999999"
   style="fill:#54c0eb"
   y="218.3"
   x="367.5" />

	<rect
   id="rect3969"
   height="3.8"
   width="4.5999999"
   style="fill:#54c0eb"
   y="218.3"
   x="377.79999" />

	<rect
   id="rect3971"
   height="3.8"
   width="4.5999999"
   style="fill:#54c0eb"
   y="218.3"
   x="388" />

	<rect
   id="rect3973"
   height="3.8"
   width="4.5999999"
   style="fill:#54c0eb"
   y="218.3"
   x="398.20001" />

	<rect
   id="rect3975"
   height="3.8"
   width="4.5999999"
   style="fill:#54c0eb"
   y="218.3"
   x="408.39999" />

</g>
      <rect
         id="rect3979"
         height="44.325264"
         width="42.4687"
         style="fill:#324a5e;stroke-width:2.32069445"
         y="239.72783"
         x="804.172" />
      <rect
         id="rect3981"
         height="11.835542"
         width="42.4687"
         style="fill:#acb3ba;stroke-width:2.32069445"
         y="239.72783"
         x="804.172" />
      <rect
         id="rect3983"
         height="37.363178"
         width="35.738693"
         style="fill:#324a5e;stroke-width:2.32069445"
         y="246.68987"
         x="859.17261" />
      <rect
         id="rect3985"
         height="9.9789867"
         width="35.738693"
         style="fill:#acb3ba;stroke-width:2.32069445"
         y="246.68987"
         x="859.17261" />
      <path
         id="path3987"
         d="M 156.46637,395.91049 H 56.908584 c -0.232111,0 -0.464131,-0.2322 -0.464131,-0.4644 v -3.01698 c 0,-0.2322 0.23202,-0.4644 0.464131,-0.4644 H 156.2343 c 0.2321,0 0.46412,0.2322 0.46412,0.4644 v 3.01698 c 0.23212,0.2322 0,0.4644 -0.23202,0.4644 z"
         style="fill:#324a5e;stroke-width:2.32069445"
         inkscape:connector-curvature="0" />
      <g
         id="g3989"
         transform="matrix(2.3206944,0,0,2.3206944,-25.011926,-215.5925)">
</g>
      <g
         id="g3991"
         transform="matrix(2.3206944,0,0,2.3206944,-25.011926,-215.5925)">
</g>
      <g
         id="g3993"
         transform="matrix(2.3206944,0,0,2.3206944,-25.011926,-215.5925)">
</g>
      <g
         id="g3995"
         transform="matrix(2.3206944,0,0,2.3206944,-25.011926,-215.5925)">
</g>
      <g
         id="g3997"
         transform="matrix(2.3206944,0,0,2.3206944,-25.011926,-215.5925)">
</g>
      <g
         id="g3999"
         transform="matrix(2.3206944,0,0,2.3206944,-25.011926,-215.5925)">
</g>
      <g
         id="g4001"
         transform="matrix(2.3206944,0,0,2.3206944,-25.011926,-215.5925)">
</g>
      <g
         id="g4003"
         transform="matrix(2.3206944,0,0,2.3206944,-25.011926,-215.5925)">
</g>
      <g
         id="g4005"
         transform="matrix(2.3206944,0,0,2.3206944,-25.011926,-215.5925)">
</g>
      <g
         id="g4007"
         transform="matrix(2.3206944,0,0,2.3206944,-25.011926,-215.5925)">
</g>
      <g
         id="g4009"
         transform="matrix(2.3206944,0,0,2.3206944,-25.011926,-215.5925)">
</g>
      <g
         id="g4011"
         transform="matrix(2.3206944,0,0,2.3206944,-25.011926,-215.5925)">
</g>
      <g
         id="g4013"
         transform="matrix(2.3206944,0,0,2.3206944,-25.011926,-215.5925)">
</g>
      <g
         id="g4015"
         transform="matrix(2.3206944,0,0,2.3206944,-25.011926,-215.5925)">
</g>
      <g
         id="g4017"
         transform="matrix(2.3206944,0,0,2.3206944,-25.011926,-215.5925)">
</g>
      <g
         id="g4197"
         transform="matrix(0.62113092,0,0,0.62113092,365.10577,277.34097)">
        <path
           id="path4193"
           d="M 126.91587,0.07227555 C 62.083583,0.07228017 66.132129,28.187465 66.132129,28.187465 l 0.07227,29.127047 h 61.867881 v 8.745341 H 41.630717 c 0,0 -41.4861659,-4.704909 -41.4861659,60.711467 -4.63e-6,65.41635 36.2100509,63.09655 36.2100509,63.09655 h 21.610389 v -30.35573 c 0,0 -1.164855,-36.21005 35.631847,-36.21005 h 61.361942 c 0,0 34.47544,0.5573 34.47544,-33.31903 V 33.969509 c 0,-5e-6 5.23432,-33.89723345 -62.51835,-33.89723345 z M 92.801807,19.65895 c 6.1554,-5e-6 11.130433,4.975035 11.130433,11.130434 1e-5,6.1554 -4.975033,11.130435 -11.130433,11.130435 -6.1554,5e-6 -11.130435,-4.975035 -11.130435,-11.130435 -5e-6,-6.155399 4.975035,-11.130434 11.130435,-11.130434 z"
           inkscape:connector-curvature="0"
           style="fill:url(#linearGradient-1)" />
        <path
           id="path4195"
           d="m 128.7571,254.12627 c 64.8323,0 60.78374,-28.11519 60.78374,-28.11519 l -0.0723,-29.12705 h -61.86787 v -8.74534 h 86.44156 c 0,0 41.48617,4.7049 41.48617,-60.71148 2e-5,-65.416353 -36.21005,-63.096551 -36.21005,-63.096551 h -21.61039 v 30.355724 c 0,0 1.16487,36.210047 -35.63185,36.210047 h -61.36195 c 0,0 -34.475435,-0.55729 -34.475435,33.31906 v 56.01355 c 0,0 -5.234323,33.89723 62.518355,33.89723 v 0 z m 34.11406,-19.58667 c -6.1554,0 -11.13043,-4.97504 -11.13043,-11.13044 0,-6.1554 4.97503,-11.13043 11.13043,-11.13043 6.1554,0 11.13043,4.97503 11.13043,11.13043 3e-5,6.1554 -4.97503,11.13044 -11.13043,11.13044 z"
           inkscape:connector-curvature="0"
           style="fill:url(#linearGradient-2)" />
      </g>
    </g>
  </g>
</svg>
